<svg width="60" height="60" viewBox="0 0 60 60" fill="none" xmlns="http://www.w3.org/2000/svg">
<g clip-path="url(#clip0_7305_2216)">
<path d="M16.2474 58.6079C19.1067 58.6079 21.4245 56.29 21.4245 53.4308C21.4245 50.5715 19.1067 48.2537 16.2474 48.2537C13.3882 48.2537 11.0703 50.5715 11.0703 53.4308C11.0703 56.29 13.3882 58.6079 16.2474 58.6079Z" fill="#808080"/>
<path d="M50.806 58.6079C53.6653 58.6079 55.9831 56.29 55.9831 53.4308C55.9831 50.5715 53.6653 48.2537 50.806 48.2537C47.9468 48.2537 45.6289 50.5715 45.6289 53.4308C45.6289 56.29 47.9468 58.6079 50.806 58.6079Z" fill="#808080"/>
<path d="M55.4845 21.5778V16.8567H12.6016V48.253H55.4845V25.8836" fill="#F2CA7F"/>
<path d="M58.8864 47.0651H56.5965V25.8096C56.5965 25.1946 56.0981 24.6959 55.4829 24.6959C54.8678 24.6959 54.3693 25.1946 54.3693 25.8096V47.0654H13.7134V17.896H17.0184C17.6336 17.896 18.1321 17.3974 18.1321 16.7824C18.1321 16.1674 17.6337 15.6687 17.0184 15.6687H12.6C11.9849 15.6687 11.4864 16.1674 11.4864 16.7824V47.0517C9.45059 46.8921 7.84266 45.1856 7.84266 43.1096V4.44886C7.84266 2.19066 6.00539 0.353394 3.74719 0.353394H1.11363C0.498398 0.353394 0 0.852026 0 1.46703C0 2.08203 0.498398 2.58066 1.11363 2.58066H3.7473C4.77738 2.58066 5.61562 3.41878 5.61562 4.44898V43.1097C5.61562 46.4046 8.20629 49.105 11.4575 49.2827C10.5217 50.3811 9.95508 51.8033 9.95508 53.356C9.95508 56.8248 12.7771 59.6466 16.2456 59.6466C19.7143 59.6466 22.5362 56.8246 22.5362 53.356C22.5362 51.8078 21.973 50.3896 21.0422 49.2925H46.0084C45.0776 50.3896 44.5144 51.8078 44.5144 53.356C44.5144 56.8248 47.3364 59.6466 50.805 59.6466C54.2735 59.6466 57.0955 56.8246 57.0955 53.356C57.0955 51.8078 56.5323 50.3896 55.6015 49.2925H58.8862C59.5014 49.2925 59.9999 48.7939 59.9999 48.1789C60 47.5638 59.5014 47.0651 58.8864 47.0651ZM20.3091 53.3559C20.3091 55.5965 18.4862 57.4194 16.2456 57.4194C14.0051 57.4194 12.1822 55.5965 12.1822 53.3559C12.1822 51.1153 14.0051 49.2924 16.2456 49.2924C18.4862 49.2923 20.3091 51.1151 20.3091 53.3559ZM50.8051 57.4194C48.5645 57.4194 46.7416 55.5965 46.7416 53.3559C46.7416 51.1153 48.5645 49.2924 50.8051 49.2924C53.0456 49.2924 54.8685 51.1153 54.8685 53.3559C54.8685 55.5965 53.0456 57.4194 50.8051 57.4194Z" fill="black"/>
<path d="M20.7308 17.8961H54.3697V21.5036C54.3697 22.1186 54.8681 22.6172 55.4834 22.6172C56.0985 22.6172 56.597 22.1186 56.597 21.5036V16.7825C56.597 16.1675 56.0986 15.6688 55.4834 15.6688H20.7308C20.1157 15.6688 19.6172 16.1675 19.6172 16.7825C19.6172 17.3975 20.1157 17.8961 20.7308 17.8961Z" fill="black"/>
<path d="M34.1288 30.6369C34.1288 26.1762 30.4998 22.5471 26.039 22.5471C21.5783 22.5471 17.9492 26.1762 17.9492 30.6369C17.9492 31.2519 18.4476 31.7506 19.0629 31.7506H33.0153C33.6303 31.7504 34.1288 31.2519 34.1288 30.6369ZM20.2824 29.5233C20.804 26.8213 23.1869 24.7743 26.039 24.7743C28.8911 24.7743 31.274 26.8213 31.7956 29.5233H20.2824Z" fill="black"/>
<path d="M50.1316 29.7096V23.6606C50.1316 23.0456 49.6332 22.547 49.0179 22.547H37.6566C37.0415 22.547 36.543 23.0456 36.543 23.6606V29.7096C36.543 33.0766 39.0053 35.8779 42.2236 36.411V40.1869H40.1978C39.5827 40.1869 39.0842 40.6855 39.0842 41.3005C39.0842 41.9155 39.5826 42.4141 40.1978 42.4141H46.4765C47.0916 42.4141 47.5901 41.9155 47.5901 41.3005C47.5901 40.6855 47.0917 40.1869 46.4765 40.1869H44.4507V36.411C47.6692 35.878 50.1316 33.0766 50.1316 29.7096ZM38.7705 29.7096V24.7743H47.9046V29.7096C47.9046 32.228 45.8559 34.2766 43.3376 34.2766C40.8193 34.2766 38.7705 32.228 38.7705 29.7096Z" fill="black"/>
<path d="M24.9262 34.3489V39.8803C24.9262 40.0495 24.7887 40.1869 24.6198 40.1869C24.4508 40.1869 24.3132 40.0495 24.3132 39.8803C24.3132 39.2653 23.8148 38.7667 23.1996 38.7667C22.5843 38.7667 22.0859 39.2653 22.0859 39.8803C22.0859 41.2775 23.2225 42.4141 24.6196 42.4141C26.0166 42.4141 27.1532 41.2775 27.1532 39.8803V34.3489C27.1532 33.7339 26.6548 33.2352 26.0396 33.2352C25.4244 33.2352 24.9262 33.7339 24.9262 34.3489Z" fill="black"/>
<path d="M16.2464 54.4687C16.8615 54.4687 17.3601 53.9701 17.3601 53.3551C17.3601 52.74 16.8615 52.2415 16.2464 52.2415C15.6314 52.2415 15.1328 52.74 15.1328 53.3551C15.1328 53.9701 15.6314 54.4687 16.2464 54.4687Z" fill="black"/>
<path d="M50.805 54.4687C51.4201 54.4687 51.9187 53.9701 51.9187 53.3551C51.9187 52.74 51.4201 52.2415 50.805 52.2415C50.19 52.2415 49.6914 52.74 49.6914 53.3551C49.6914 53.9701 50.19 54.4687 50.805 54.4687Z" fill="black"/>
</g>
<defs>
<clipPath id="clip0_7305_2216">
<rect width="60" height="60" fill="white"/>
</clipPath>
</defs>
</svg>
