<svg width="60" height="60" viewBox="0 0 60 60" fill="none" xmlns="http://www.w3.org/2000/svg">
<path d="M11.25 11.25C11.25 11.25 20 13.5 20 22.25C20 25.125 18.75 41.625 32.5 45C26.375 45 12.5 43.75 12.5 28.75C12.5 19.375 14.375 14.125 11.25 11.25Z" fill="#9575CD"/>
<path d="M48.75 33.75C48.75 33.75 47.25 30 43.75 30C41.125 30 38.75 32.75 38.75 36.5C38.375 37.375 37 38.75 33.75 38.75C30.5 38.75 29.375 37.75 28.75 36.25C28.75 23.875 43.75 12.25 21.25 6.25C28.125 16 19.875 22 19.875 31.25C19.875 39.125 25.875 45 33.75 45C44.5 45 42.625 33.75 48.75 33.75Z" fill="#B39DDB"/>
<path d="M28.75 36.25C28.75 37.5761 29.2768 38.8479 30.2145 39.7855C31.1521 40.7232 32.4239 41.25 33.75 41.25C35.0761 41.25 36.3479 40.7232 37.2855 39.7855C38.2232 38.8479 38.75 37.5761 38.75 36.25C38.75 35.5934 38.6207 34.9432 38.3694 34.3366C38.1181 33.73 37.7498 33.1788 37.2855 32.7145C36.8212 32.2502 36.27 31.8819 35.6634 31.6306C35.0568 31.3793 34.4066 31.25 33.75 31.25C33.0934 31.25 32.4432 31.3793 31.8366 31.6306C31.23 31.8819 30.6788 32.2502 30.2145 32.7145C29.7502 33.1788 29.3819 33.73 29.1306 34.3366C28.8793 34.9432 28.75 35.5934 28.75 36.25Z" fill="#AB47BC"/>
<path d="M41.25 53.75H21.25V51.25C21.25 49.875 22.375 48.75 23.75 48.75H38.75C40.125 48.75 41.25 49.875 41.25 51.25V53.75Z" fill="#546E7A"/>
<path d="M17.5 43.75H45V46.25C45 47.625 43.875 48.75 42.5 48.75H20C18.625 48.75 17.5 47.625 17.5 46.25V43.75Z" fill="#607D8B"/>
</svg>
