<svg width="60" height="60" viewBox="0 0 60 60" fill="none" xmlns="http://www.w3.org/2000/svg">
<g clip-path="url(#clip0_7305_2175)">
<path d="M50.625 43.125V48.75C50.625 53.9195 46.419 58.125 41.25 58.125C36.081 58.125 31.875 53.9195 31.875 48.75H30.9375V47.8125C30.9375 47.2948 30.5182 46.875 30 46.875C29.4818 46.875 29.0625 47.2948 29.0625 47.8125V48.75H28.125C28.125 53.9195 23.919 58.125 18.75 58.125C13.581 58.125 9.375 53.9195 9.375 48.75V43.125H7.5V48.75C7.5 54.9532 12.5464 60 18.75 60C23.3602 60 27.3267 57.2104 29.0625 53.2327V59.0625C29.0625 59.5802 29.4818 60 30 60C30.5182 60 30.9375 59.5802 30.9375 59.0625V53.2327C32.6734 57.2104 36.6398 60 41.25 60C47.4537 60 52.5 54.9532 52.5 48.75V43.125H50.625Z" fill="#576D7E"/>
<path d="M37.5 1.875H22.5C21.9823 1.875 21.5625 1.45523 21.5625 0.9375C21.5625 0.419766 21.9823 0 22.5 0H37.5C38.0177 0 38.4375 0.419766 38.4375 0.9375C38.4375 1.45523 38.0177 1.875 37.5 1.875Z" fill="#35495C"/>
<path d="M32.8125 5.625H27.1875C26.1519 5.625 25.3125 4.78559 25.3125 3.75V1.875H34.6875V3.75C34.6875 4.78559 33.8481 5.625 32.8125 5.625Z" fill="#576D7E"/>
<path d="M30.8203 5.625H28.9453V7.5H30.8203V5.625Z" fill="#35495C"/>
<path d="M30.8203 43.125H28.9453V45H30.8203V43.125Z" fill="#35495C"/>
<path d="M52.5 43.125H50.625V45H52.5V43.125Z" fill="#35495C"/>
<path d="M9.375 43.125H7.5V45H9.375V43.125Z" fill="#35495C"/>
<path d="M59.0341 39.1475L56.2216 27.8975C56.1172 27.4805 55.7428 27.1875 55.3125 27.1875H47.8125C47.3822 27.1875 47.0078 27.4805 46.9034 27.8975L44.0909 39.1475C44.0716 39.2221 44.0625 39.2986 44.0625 39.375V42.1875C44.0625 42.7052 44.4818 43.125 45 43.125H58.125C58.6432 43.125 59.0625 42.7052 59.0625 42.1875V39.375C59.0625 39.2986 59.0534 39.2221 59.0341 39.1475Z" fill="#F5B445"/>
<path d="M37.4716 39.1475L34.6591 27.8975C34.5547 27.4805 34.1803 27.1875 33.75 27.1875H26.25C25.8197 27.1875 25.4453 27.4805 25.3409 27.8975L22.5284 39.1475C22.5091 39.2221 22.5 39.2986 22.5 39.375V42.1875C22.5 42.7052 22.9193 43.125 23.4375 43.125H36.5625C37.0807 43.125 37.5 42.7052 37.5 42.1875V39.375C37.5 39.2986 37.4909 39.2221 37.4716 39.1475Z" fill="#F5B445"/>
<path d="M30.8203 43.125H28.9453V45.9375H30.8203V43.125Z" fill="#576D7E"/>
<path d="M30.8203 7.5H28.9453V27.1875H30.8203V7.5Z" fill="#576D7E"/>
<path d="M15.9091 39.1475L13.0966 27.8975C12.9922 27.4805 12.6178 27.1875 12.1875 27.1875H4.6875C4.25719 27.1875 3.88277 27.4805 3.77836 27.8975L0.965859 39.1475C0.946641 39.2221 0.9375 39.2986 0.9375 39.375V42.1875C0.9375 42.7052 1.3568 43.125 1.875 43.125H15C15.5182 43.125 15.9375 42.7052 15.9375 42.1875V39.375C15.9375 39.2986 15.9284 39.2221 15.9091 39.1475Z" fill="#F5B445"/>
<path d="M31.875 48.75H28.125C27.6073 48.75 27.1875 48.3302 27.1875 47.8125V46.875C27.1875 46.3573 27.6073 45.9375 28.125 45.9375H31.875C32.3927 45.9375 32.8125 46.3573 32.8125 46.875V47.8125C32.8125 48.3302 32.3927 48.75 31.875 48.75Z" fill="#576D7E"/>
<path d="M15.9375 42.1875V39.375C15.9282 39.2999 15.9191 39.2256 15.9098 39.1505L13.0966 27.8975C12.9923 27.4802 12.6175 27.1875 12.1873 27.1875C10.6616 27.1875 9.45059 28.4719 9.54012 29.995L10.0348 38.4047C10.1256 39.9484 8.89828 41.25 7.35199 41.25H1.875C1.35727 41.25 0.9375 41.6698 0.9375 42.1875C0.9375 42.7052 1.35727 43.125 1.875 43.125H10.3125H11.25H15C15.5177 43.125 15.9375 42.7052 15.9375 42.1875Z" fill="#F09820"/>
<path d="M37.5 42.1875V39.375C37.4907 39.2999 37.4816 39.2256 37.4723 39.1505L34.6591 27.8975C34.5548 27.4802 34.18 27.1875 33.7498 27.1875C32.2241 27.1875 31.0131 28.4719 31.1026 29.995L31.5973 38.4047C31.6881 39.9483 30.4607 41.25 28.9144 41.25H23.4375C22.9198 41.25 22.5 41.6698 22.5 42.1875C22.5 42.7052 22.9198 43.125 23.4375 43.125H31.875H32.8125H36.5625C37.0802 43.125 37.5 42.7052 37.5 42.1875Z" fill="#F09820"/>
<path d="M59.0625 42.1875V39.375C59.0532 39.2999 59.0441 39.2256 59.0348 39.1505L56.2216 27.8975C56.1173 27.4802 55.7425 27.1875 55.3123 27.1875C53.7866 27.1875 52.5756 28.4719 52.6651 29.995L53.1598 38.4047C53.2506 39.9483 52.0232 41.25 50.4769 41.25H45C44.4823 41.25 44.0625 41.6698 44.0625 42.1875C44.0625 42.7052 44.4823 43.125 45 43.125H53.4375H54.375H58.125C58.6427 43.125 59.0625 42.7052 59.0625 42.1875Z" fill="#F09820"/>
<path d="M32.0655 50.625C31.942 50.019 31.8765 49.3921 31.8765 48.75H30.939H29.064H28.1265C28.1265 49.3921 28.061 50.019 27.9375 50.625H32.0655Z" fill="#35495C"/>
</g>
<defs>
<clipPath id="clip0_7305_2175">
<rect width="60" height="60" fill="white"/>
</clipPath>
</defs>
</svg>
