<svg width="286" height="177" viewBox="0 0 286 177" fill="none" xmlns="http://www.w3.org/2000/svg">
<g style="mix-blend-mode:luminosity" opacity="0.75">
<path d="M5.06304 174.623C4.31651 174.623 3.78328 174.49 3.46334 174.225C3.14684 173.957 2.97999 173.513 2.96279 172.894C2.94902 172.509 2.9387 172.072 2.93182 171.583C2.92838 171.095 2.92838 170.606 2.93182 170.118C2.9387 169.629 2.94902 169.19 2.96279 168.802C2.97655 168.269 3.14684 167.849 3.47366 167.543C3.80048 167.236 4.32855 167.083 5.05788 167.083C5.79065 167.083 6.32216 167.218 6.65242 167.486C6.98613 167.754 7.1633 168.196 7.18394 168.812C7.19082 168.967 7.19254 169.147 7.1891 169.354C7.18566 169.557 7.1805 169.737 7.17362 169.896H5.9661C5.97298 169.713 5.97642 169.495 5.97642 169.24C5.97986 168.982 5.97814 168.764 5.97126 168.585C5.96782 168.423 5.89385 168.303 5.74937 168.224C5.60488 168.141 5.37438 168.1 5.05788 168.1C4.75514 168.1 4.53325 168.141 4.3922 168.224C4.25459 168.303 4.18062 168.423 4.1703 168.585C4.1531 169.046 4.14106 169.54 4.13418 170.066C4.1273 170.589 4.1273 171.114 4.13418 171.64C4.14106 172.166 4.1531 172.66 4.1703 173.121C4.18062 173.283 4.25631 173.405 4.39736 173.487C4.53841 173.57 4.7603 173.611 5.06304 173.611C5.39674 173.611 5.63928 173.57 5.79065 173.487C5.94202 173.405 6.02114 173.283 6.02802 173.121C6.0349 172.939 6.03662 172.718 6.03318 172.46C6.02974 172.199 6.02458 171.977 6.0177 171.795H7.23038C7.2407 171.963 7.24586 172.146 7.24586 172.342C7.2493 172.538 7.24586 172.722 7.23554 172.894C7.21146 173.513 7.03085 173.957 6.69371 174.225C6.36 174.49 5.81645 174.623 5.06304 174.623ZM14.125 174.623C13.3647 174.623 12.8177 174.49 12.484 174.225C12.1503 173.957 11.9749 173.513 11.9577 172.894C11.9336 172.24 11.9216 171.561 11.9216 170.856C11.9216 170.147 11.9336 169.466 11.9577 168.812C11.9749 168.196 12.1503 167.754 12.484 167.486C12.8177 167.218 13.3647 167.083 14.125 167.083C14.8888 167.083 15.4357 167.218 15.766 167.486C16.0997 167.754 16.2752 168.196 16.2924 168.812C16.3164 169.473 16.3285 170.155 16.3285 170.861C16.3285 171.563 16.3164 172.24 16.2924 172.894C16.2752 173.513 16.0997 173.957 15.766 174.225C15.4357 174.49 14.8888 174.623 14.125 174.623ZM14.125 173.611C14.4622 173.611 14.7047 173.57 14.8526 173.487C15.0006 173.405 15.078 173.284 15.0848 173.126C15.1124 172.672 15.1296 172.18 15.1364 171.65C15.1433 171.117 15.1416 170.584 15.1313 170.051C15.1244 169.517 15.1089 169.027 15.0848 168.58C15.078 168.418 14.9988 168.298 14.8475 168.219C14.6961 168.136 14.4553 168.095 14.125 168.095C13.7982 168.095 13.5591 168.136 13.4077 168.219C13.2564 168.298 13.1755 168.418 13.1652 168.58C13.1377 169.027 13.1205 169.517 13.1136 170.051C13.1067 170.584 13.1084 171.117 13.1188 171.65C13.1291 172.18 13.1446 172.672 13.1652 173.126C13.1755 173.284 13.2564 173.405 13.4077 173.487C13.5591 173.57 13.7982 173.611 14.125 173.611ZM22.2633 174.54H21.0919V167.171H22.9548L23.5534 169.519L24.2758 173.446H24.5597L24.3378 170.231L24.25 167.171H25.4214V174.54H23.4811L22.8464 172.084L22.2581 168.26H21.964L22.1653 171.722L22.2633 174.54ZM32.2954 174.623C31.5386 174.623 30.9967 174.49 30.6699 174.225C30.3431 173.957 30.1659 173.511 30.1384 172.889C30.1109 172.531 30.1195 172.165 30.1642 171.79H31.3201C31.2995 172.027 31.2874 172.259 31.284 172.486C31.284 172.713 31.296 172.925 31.3201 173.121C31.3373 173.279 31.4199 173.401 31.5678 173.487C31.7192 173.57 31.96 173.611 32.2903 173.611C32.6171 173.611 32.851 173.57 32.9921 173.487C33.1366 173.401 33.2191 173.279 33.2398 173.121C33.2639 172.942 33.2742 172.773 33.2707 172.615C33.2673 172.454 33.257 172.283 33.2398 172.104C33.2226 171.956 33.1675 171.826 33.0746 171.712C32.9818 171.599 32.7977 171.523 32.5225 171.485L31.6659 171.305C31.2599 171.225 30.9469 171.112 30.7267 170.964C30.51 170.816 30.3569 170.63 30.2674 170.407C30.178 170.183 30.1264 169.92 30.1126 169.617C30.1057 169.473 30.1023 169.335 30.1023 169.204C30.1057 169.074 30.1109 168.943 30.1178 168.812C30.1384 168.196 30.3121 167.754 30.639 167.486C30.9658 167.218 31.5162 167.083 32.2903 167.083C33.0196 167.083 33.5477 167.218 33.8745 167.486C34.2013 167.754 34.3768 168.196 34.4008 168.812C34.4112 168.95 34.4129 169.12 34.406 169.323C34.4026 169.522 34.3957 169.713 34.3854 169.896H33.2191C33.2501 169.445 33.2535 169.006 33.2295 168.58C33.2019 168.256 32.8871 168.095 32.2851 168.095C31.9583 168.095 31.7226 168.136 31.5781 168.219C31.4337 168.301 31.3511 168.422 31.3304 168.58C31.3064 168.752 31.2943 168.926 31.2943 169.101C31.2978 169.273 31.3098 169.445 31.3304 169.617C31.3477 169.768 31.4027 169.899 31.4956 170.009C31.5885 170.116 31.7811 170.188 32.0735 170.226L32.8631 170.376C33.2828 170.451 33.6044 170.567 33.8281 170.721C34.0517 170.876 34.2082 171.069 34.2976 171.299C34.3905 171.526 34.4439 171.795 34.4576 172.104C34.4679 172.242 34.4714 172.374 34.4679 172.502C34.4645 172.629 34.4576 172.758 34.4473 172.889C34.4198 173.511 34.2409 173.957 33.9106 174.225C33.5838 174.49 33.0454 174.623 32.2954 174.623ZM41.2903 174.623C40.5128 174.623 39.9538 174.49 39.6132 174.225C39.2761 173.957 39.1041 173.513 39.0972 172.894C39.0559 170.985 39.0559 169.077 39.0972 167.171H40.3047C40.2806 168.114 40.2686 169.106 40.2686 170.149C40.2686 171.188 40.2755 172.18 40.2892 173.126C40.2892 173.449 40.6229 173.611 41.2903 173.611C41.9405 173.611 42.2656 173.449 42.2656 173.126C42.2828 172.18 42.2914 171.188 42.2914 170.149C42.2949 169.106 42.2863 168.114 42.2656 167.171H43.4732C43.5144 169.077 43.5144 170.985 43.4732 172.894C43.4697 173.513 43.2977 173.957 42.9571 174.225C42.6165 174.49 42.0609 174.623 41.2903 174.623ZM51.6269 174.54H48.2366V167.171H49.4441V173.446H51.6269V174.54ZM58.5061 174.54H57.2986V168.265H55.8949V167.171H59.9045V168.265H58.5061V174.54ZM66.567 174.623C65.8067 174.623 65.2597 174.49 64.926 174.225C64.5923 173.957 64.4168 173.513 64.3996 172.894C64.3755 172.24 64.3635 171.561 64.3635 170.856C64.3635 170.147 64.3755 169.466 64.3996 168.812C64.4168 168.196 64.5923 167.754 64.926 167.486C65.2597 167.218 65.8067 167.083 66.567 167.083C67.3307 167.083 67.8777 167.218 68.2079 167.486C68.5416 167.754 68.7171 168.196 68.7343 168.812C68.7584 169.473 68.7704 170.155 68.7704 170.861C68.7704 171.563 68.7584 172.24 68.7343 172.894C68.7171 173.513 68.5416 173.957 68.2079 174.225C67.8777 174.49 67.3307 174.623 66.567 174.623ZM66.567 173.611C66.9041 173.611 67.1466 173.57 67.2946 173.487C67.4425 173.405 67.5199 173.284 67.5268 173.126C67.5543 172.672 67.5715 172.18 67.5784 171.65C67.5853 171.117 67.5835 170.584 67.5732 170.051C67.5663 169.517 67.5509 169.027 67.5268 168.58C67.5199 168.418 67.4408 168.298 67.2894 168.219C67.138 168.136 66.8972 168.095 66.567 168.095C66.2401 168.095 66.001 168.136 65.8497 168.219C65.6983 168.298 65.6175 168.418 65.6071 168.58C65.5796 169.027 65.5624 169.517 65.5555 170.051C65.5486 170.584 65.5504 171.117 65.5607 171.65C65.571 172.18 65.5865 172.672 65.6071 173.126C65.6175 173.284 65.6983 173.405 65.8497 173.487C66.001 173.57 66.2401 173.611 66.567 173.611ZM74.7414 174.54H73.5338V167.171H75.5102C76.2499 167.171 76.7849 167.302 77.1151 167.563C77.4488 167.825 77.6294 168.256 77.6569 168.859C77.681 169.144 77.6913 169.388 77.6879 169.591C77.6879 169.794 77.6776 170.033 77.6569 170.309C77.6397 170.69 77.552 171.002 77.3938 171.243C77.2355 171.48 76.993 171.661 76.6662 171.784L77.8685 174.54H76.5784L75.5154 171.991H74.7414V174.54ZM74.7414 168.265V170.897H75.4948C75.8216 170.897 76.059 170.852 76.2069 170.763C76.3548 170.673 76.4357 170.544 76.4494 170.376C76.4942 169.846 76.4942 169.318 76.4494 168.791C76.4357 168.619 76.3548 168.489 76.2069 168.399C76.059 168.31 75.8267 168.265 75.5102 168.265H74.7414ZM83.8291 174.54H82.6216V167.171H83.8291V174.54ZM89.7433 174.54H88.4997L89.7485 167.171H91.8436L93.0924 174.54H91.8539L91.5907 172.889H90.0117L89.7433 174.54ZM90.3471 170.169L90.12 171.795H91.4772L91.2553 170.169L90.987 168.265H90.6154L90.3471 170.169ZM108.737 174.54H105.13V167.171H108.737V168.265H106.337V170.252H108.598V171.346H106.337V173.446H108.737V174.54ZM114.594 174.54H113.387V167.171H115.301L115.797 170.004L115.854 173.441H116.044L116.096 170.004L116.597 167.171H118.506V174.54H117.293V172.295L117.531 168.265H117.329L117.061 172.373L116.581 174.53H115.317L114.842 172.373L114.558 168.265H114.373L114.594 172.295V174.54ZM132.917 174.623C132.171 174.623 131.637 174.49 131.318 174.225C131.001 173.957 130.834 173.513 130.817 172.894C130.803 172.509 130.793 172.072 130.786 171.583C130.783 171.095 130.783 170.606 130.786 170.118C130.793 169.629 130.803 169.19 130.817 168.802C130.831 168.269 131.001 167.849 131.328 167.543C131.655 167.236 132.183 167.083 132.912 167.083C133.645 167.083 134.176 167.218 134.507 167.486C134.84 167.754 135.018 168.196 135.038 168.812C135.045 168.967 135.047 169.147 135.043 169.354C135.04 169.557 135.035 169.737 135.028 169.896H133.82C133.827 169.713 133.831 169.495 133.831 169.24C133.834 168.982 133.832 168.764 133.825 168.585C133.822 168.423 133.748 168.303 133.604 168.224C133.459 168.141 133.229 168.1 132.912 168.1C132.609 168.1 132.387 168.141 132.246 168.224C132.109 168.303 132.035 168.423 132.025 168.585C132.007 169.046 131.995 169.54 131.988 170.066C131.982 170.589 131.982 171.114 131.988 171.64C131.995 172.166 132.007 172.66 132.025 173.121C132.035 173.283 132.111 173.405 132.252 173.487C132.393 173.57 132.615 173.611 132.917 173.611C133.251 173.611 133.493 173.57 133.645 173.487C133.796 173.405 133.875 173.283 133.882 173.121C133.889 172.939 133.891 172.718 133.887 172.46C133.884 172.199 133.879 171.977 133.872 171.795H135.085C135.095 171.963 135.1 172.146 135.1 172.342C135.104 172.538 135.1 172.722 135.09 172.894C135.066 173.513 134.885 173.957 134.548 174.225C134.214 174.49 133.671 174.623 132.917 174.623ZM141.979 174.623C141.219 174.623 140.672 174.49 140.338 174.225C140.005 173.957 139.829 173.513 139.812 172.894C139.788 172.24 139.776 171.561 139.776 170.856C139.776 170.147 139.788 169.466 139.812 168.812C139.829 168.196 140.005 167.754 140.338 167.486C140.672 167.218 141.219 167.083 141.979 167.083C142.743 167.083 143.29 167.218 143.62 167.486C143.954 167.754 144.129 168.196 144.147 168.812C144.171 169.473 144.183 170.155 144.183 170.861C144.183 171.563 144.171 172.24 144.147 172.894C144.129 173.513 143.954 173.957 143.62 174.225C143.29 174.49 142.743 174.623 141.979 174.623ZM141.979 173.611C142.316 173.611 142.559 173.57 142.707 173.487C142.855 173.405 142.932 173.284 142.939 173.126C142.967 172.672 142.984 172.18 142.991 171.65C142.998 171.117 142.996 170.584 142.985 170.051C142.979 169.517 142.963 169.027 142.939 168.58C142.932 168.418 142.853 168.298 142.702 168.219C142.55 168.136 142.309 168.095 141.979 168.095C141.652 168.095 141.413 168.136 141.262 168.219C141.111 168.298 141.03 168.418 141.019 168.58C140.992 169.027 140.975 169.517 140.968 170.051C140.961 170.584 140.963 171.117 140.973 171.65C140.983 172.18 140.999 172.672 141.019 173.126C141.03 173.284 141.111 173.405 141.262 173.487C141.413 173.57 141.652 173.611 141.979 173.611ZM150.154 174.54H148.946V167.171H150.861L151.356 170.004L151.413 173.441H151.604L151.655 170.004L152.156 167.171H154.065V174.54H152.852V172.295L153.09 168.265H152.889L152.62 172.373L152.14 174.53H150.876L150.401 172.373L150.118 168.265H149.932L150.154 172.295V174.54ZM162.482 174.54H158.875V167.171H162.482V168.265H160.083V170.252H162.343V171.346H160.083V173.446H162.482V174.54ZM168.34 174.54H167.132V167.171H169.108C169.848 167.171 170.383 167.302 170.713 167.563C171.047 167.825 171.228 168.256 171.255 168.859C171.279 169.144 171.29 169.388 171.286 169.591C171.286 169.794 171.276 170.033 171.255 170.309C171.238 170.69 171.15 171.002 170.992 171.243C170.834 171.48 170.591 171.661 170.264 171.784L171.467 174.54H170.177L169.114 171.991H168.34V174.54ZM168.34 168.265V170.897H169.093C169.42 170.897 169.657 170.852 169.805 170.763C169.953 170.673 170.034 170.544 170.048 170.376C170.092 169.846 170.092 169.318 170.048 168.791C170.034 168.619 169.953 168.489 169.805 168.399C169.657 168.31 169.425 168.265 169.108 168.265H168.34ZM178.176 174.623C177.429 174.623 176.896 174.49 176.576 174.225C176.259 173.957 176.093 173.513 176.075 172.894C176.062 172.509 176.051 172.072 176.044 171.583C176.041 171.095 176.041 170.606 176.044 170.118C176.051 169.629 176.062 169.19 176.075 168.802C176.089 168.269 176.259 167.849 176.586 167.543C176.913 167.236 177.441 167.083 178.17 167.083C178.903 167.083 179.435 167.218 179.765 167.486C180.099 167.754 180.276 168.196 180.296 168.812C180.303 168.967 180.305 169.147 180.302 169.354C180.298 169.557 180.293 169.737 180.286 169.896H179.079C179.085 169.713 179.089 169.495 179.089 169.24C179.092 168.982 179.091 168.764 179.084 168.585C179.08 168.423 179.006 168.303 178.862 168.224C178.717 168.141 178.487 168.1 178.17 168.1C177.868 168.1 177.646 168.141 177.505 168.224C177.367 168.303 177.293 168.423 177.283 168.585C177.266 169.046 177.254 169.54 177.247 170.066C177.24 170.589 177.24 171.114 177.247 171.64C177.254 172.166 177.266 172.66 177.283 173.121C177.293 173.283 177.369 173.405 177.51 173.487C177.651 173.57 177.873 173.611 178.176 173.611C178.509 173.611 178.752 173.57 178.903 173.487C179.055 173.405 179.134 173.283 179.141 173.121C179.147 172.939 179.149 172.718 179.146 172.46C179.142 172.199 179.137 171.977 179.13 171.795H180.343C180.353 171.963 180.358 172.146 180.358 172.342C180.362 172.538 180.358 172.722 180.348 172.894C180.324 173.513 180.143 173.957 179.806 174.225C179.473 174.49 178.929 174.623 178.176 174.623ZM186.427 174.54H185.22V167.171H186.427V174.54ZM193.534 174.623C192.773 174.623 192.226 174.49 191.893 174.225C191.559 173.957 191.383 173.513 191.366 172.894C191.342 172.24 191.33 171.561 191.33 170.856C191.33 170.147 191.342 169.466 191.366 168.812C191.383 168.196 191.559 167.754 191.893 167.486C192.226 167.218 192.773 167.083 193.534 167.083C194.297 167.083 194.844 167.218 195.175 167.486C195.508 167.754 195.684 168.196 195.701 168.812C195.725 169.473 195.737 170.155 195.737 170.861C195.737 171.563 195.725 172.24 195.701 172.894C195.684 173.513 195.508 173.957 195.175 174.225C194.844 174.49 194.297 174.623 193.534 174.623ZM193.534 173.611C193.871 173.611 194.113 173.57 194.261 173.487C194.409 173.405 194.487 173.284 194.493 173.126C194.521 172.672 194.538 172.18 194.545 171.65C194.552 171.117 194.55 170.584 194.54 170.051C194.533 169.517 194.517 169.027 194.493 168.58C194.487 168.418 194.407 168.298 194.256 168.219C194.105 168.136 193.864 168.095 193.534 168.095C193.207 168.095 192.968 168.136 192.816 168.219C192.665 168.298 192.584 168.418 192.574 168.58C192.546 169.027 192.529 169.517 192.522 170.051C192.515 170.584 192.517 171.117 192.527 171.65C192.538 172.18 192.553 172.672 192.574 173.126C192.584 173.284 192.665 173.405 192.816 173.487C192.968 173.57 193.207 173.611 193.534 173.611ZM211.614 174.54H208.007V167.171H211.614V168.265H209.214V170.252H211.475V171.346H209.214V173.446H211.614V174.54ZM217.177 174.54H216.001L217.347 170.721L216.057 167.171H217.234L217.781 168.9L218.096 170.226H218.364L218.674 168.9L219.215 167.171H220.392L219.138 170.763L220.444 174.54H219.267L218.689 172.718L218.364 171.32H218.096L217.765 172.718L217.177 174.54ZM227.297 174.54H226.089V168.265H224.686V167.171H228.695V168.265H227.297V174.54ZM236.808 174.54H233.201V167.171H236.808V168.265H234.408V170.252H236.669V171.346H234.408V173.446H236.808V174.54ZM242.665 174.54H241.458V167.171H243.434C244.174 167.171 244.709 167.302 245.039 167.563C245.373 167.825 245.553 168.256 245.581 168.859C245.605 169.144 245.615 169.388 245.612 169.591C245.612 169.794 245.602 170.033 245.581 170.309C245.564 170.69 245.476 171.002 245.318 171.243C245.16 171.48 244.917 171.661 244.59 171.784L245.793 174.54H244.502L243.439 171.991H242.665V174.54ZM242.665 168.265V170.897H243.419C243.746 170.897 243.983 170.852 244.131 170.763C244.279 170.673 244.36 170.544 244.373 170.376C244.418 169.846 244.418 169.318 244.373 168.791C244.36 168.619 244.279 168.489 244.131 168.399C243.983 168.31 243.751 168.265 243.434 168.265H242.665ZM251.753 174.54H250.546V167.171H251.753V174.54ZM258.859 174.623C258.099 174.623 257.552 174.49 257.218 174.225C256.885 173.957 256.709 173.513 256.692 172.894C256.668 172.24 256.656 171.561 256.656 170.856C256.656 170.147 256.668 169.466 256.692 168.812C256.709 168.196 256.885 167.754 257.218 167.486C257.552 167.218 258.099 167.083 258.859 167.083C259.623 167.083 260.17 167.218 260.5 167.486C260.834 167.754 261.009 168.196 261.027 168.812C261.051 169.473 261.063 170.155 261.063 170.861C261.063 171.563 261.051 172.24 261.027 172.894C261.009 173.513 260.834 173.957 260.5 174.225C260.17 174.49 259.623 174.623 258.859 174.623ZM258.859 173.611C259.196 173.611 259.439 173.57 259.587 173.487C259.735 173.405 259.812 173.284 259.819 173.126C259.847 172.672 259.864 172.18 259.871 171.65C259.878 171.117 259.876 170.584 259.866 170.051C259.859 169.517 259.843 169.027 259.819 168.58C259.812 168.418 259.733 168.298 259.582 168.219C259.43 168.136 259.19 168.095 258.859 168.095C258.533 168.095 258.293 168.136 258.142 168.219C257.991 168.298 257.91 168.418 257.9 168.58C257.872 169.027 257.855 169.517 257.848 170.051C257.841 170.584 257.843 171.117 257.853 171.65C257.863 172.18 257.879 172.672 257.9 173.126C257.91 173.284 257.991 173.405 258.142 173.487C258.293 173.57 258.533 173.611 258.859 173.611ZM267.034 174.54H265.826V167.171H267.803C268.542 167.171 269.077 167.302 269.408 167.563C269.741 167.825 269.922 168.256 269.949 168.859C269.973 169.144 269.984 169.388 269.98 169.591C269.98 169.794 269.97 170.033 269.949 170.309C269.932 170.69 269.844 171.002 269.686 171.243C269.528 171.48 269.285 171.661 268.959 171.784L270.161 174.54H268.871L267.808 171.991H267.034V174.54ZM267.034 168.265V170.897H267.787C268.114 170.897 268.351 170.852 268.499 170.763C268.647 170.673 268.728 170.544 268.742 170.376C268.787 169.846 268.787 169.318 268.742 168.791C268.728 168.619 268.647 168.489 268.499 168.399C268.351 168.31 268.119 168.265 267.803 168.265H267.034ZM275.987 174.54H274.775V173.348H275.987V174.54ZM279.714 174.54H278.502V173.348H279.714V174.54ZM283.441 174.54H282.228V173.348H283.441V174.54Z" fill="white"/>
<path d="M11.5187 157.061C8.02818 157.061 5.53722 156.45 4.04582 155.228C2.57029 153.991 1.78492 151.936 1.68973 149.064C1.6104 147.303 1.55487 145.312 1.52313 143.091C1.50727 140.87 1.50727 138.664 1.52313 136.475C1.55487 134.269 1.6104 132.31 1.68973 130.596C1.78492 127.582 2.57822 125.448 4.06962 124.194C5.57689 122.925 8.05198 122.291 11.4949 122.291C14.7792 122.291 17.1749 122.909 18.6822 124.147C20.1895 125.384 21.0224 127.423 21.1811 130.263C21.2604 130.993 21.2921 131.826 21.2763 132.762C21.2763 133.682 21.2445 134.515 21.1811 135.261H15.6121C15.6756 134.404 15.7073 133.397 15.7073 132.239C15.7232 131.064 15.6914 130.049 15.6121 129.192C15.4852 127.701 14.1128 126.955 11.4949 126.955C8.75008 126.955 7.33801 127.701 7.25868 129.192C7.14762 131.318 7.07622 133.595 7.04449 136.023C7.01276 138.45 7.01276 140.878 7.04449 143.305C7.09209 145.733 7.16349 148.009 7.25868 150.135C7.29041 150.865 7.6474 151.428 8.32964 151.825C9.01187 152.206 10.0749 152.396 11.5187 152.396C14.327 152.396 15.8184 151.643 15.9929 150.135C16.0246 149.517 16.0405 148.739 16.0405 147.803C16.0405 146.851 16.0246 146.074 15.9929 145.471H11.7329V140.497H21.4429C21.5063 141.75 21.5381 143.138 21.5381 144.662C21.5381 146.185 21.4905 147.652 21.3953 149.064C21.2842 151.936 20.4592 153.991 18.9202 155.228C17.3812 156.45 14.914 157.061 11.5187 157.061ZM30.1533 156.68H24.5843V122.695H33.6993C37.1105 122.695 39.5777 123.298 41.1008 124.504C42.6398 125.71 43.4728 127.701 43.5997 130.477C43.7108 131.794 43.7584 132.921 43.7425 133.857C43.7425 134.793 43.6949 135.896 43.5997 137.165C43.5204 138.926 43.1158 140.362 42.3859 141.473C41.6561 142.567 40.5376 143.4 39.0303 143.971L44.5754 156.68H38.6257L33.7231 144.923H30.1533V156.68ZM30.1533 127.741V139.878H33.6279C35.1352 139.878 36.2299 139.672 36.9122 139.259C37.5944 138.847 37.9673 138.252 38.0307 137.474C38.237 135.031 38.237 132.596 38.0307 130.168C37.9673 129.375 37.5944 128.772 36.9122 128.359C36.2299 127.947 35.159 127.741 33.6993 127.741H30.1533ZM56.9509 157.061C53.3652 157.061 50.787 156.45 49.2162 155.228C47.6614 153.991 46.8681 151.944 46.8364 149.088C46.646 140.283 46.646 131.485 46.8364 122.695H52.4053C52.2942 127.042 52.2387 131.62 52.2387 136.427C52.2387 141.219 52.2704 145.796 52.3339 150.159C52.3339 151.651 53.8729 152.396 56.9509 152.396C59.9496 152.396 61.4489 151.651 61.4489 150.159C61.5282 145.796 61.5679 141.219 61.5679 136.427C61.5838 131.62 61.5441 127.042 61.4489 122.695H67.0179C67.2083 131.485 67.2083 140.283 67.0179 149.088C67.002 151.944 66.2087 153.991 64.638 155.228C63.0672 156.45 60.5049 157.061 56.9509 157.061ZM88.8487 157.061C85.4058 157.061 82.9465 156.45 81.471 155.228C80.0113 153.991 79.2418 151.944 79.1625 149.088C79.099 147.311 79.0514 145.296 79.0197 143.043C79.0038 140.79 79.0038 138.537 79.0197 136.284C79.0514 134.031 79.099 132.008 79.1625 130.216C79.226 127.756 80.0113 125.821 81.5186 124.409C83.0259 122.997 85.4613 122.291 88.8249 122.291C92.2043 122.291 94.6556 122.909 96.1787 124.147C97.7177 125.384 98.5348 127.423 98.63 130.263C98.6618 130.977 98.6697 131.81 98.6538 132.762C98.638 133.698 98.6142 134.531 98.5824 135.261H93.0135C93.0452 134.42 93.0611 133.413 93.0611 132.239C93.077 131.049 93.069 130.041 93.0373 129.216C93.0214 128.47 92.6803 127.915 92.0139 127.55C91.3476 127.169 90.2845 126.979 88.8249 126.979C87.4287 126.979 86.4053 127.169 85.7548 127.55C85.1202 127.915 84.779 128.47 84.7315 129.216C84.6521 131.342 84.5966 133.619 84.5649 136.046C84.5331 138.458 84.5331 140.878 84.5649 143.305C84.5966 145.733 84.6521 148.009 84.7315 150.135C84.779 150.881 85.1281 151.444 85.7786 151.825C86.4291 152.206 87.4525 152.396 88.8487 152.396C90.3877 152.396 91.5062 152.206 92.2043 151.825C92.9024 151.444 93.2673 150.881 93.2991 150.135C93.3308 149.294 93.3387 148.279 93.3229 147.089C93.307 145.883 93.2832 144.86 93.2515 144.019H98.8442C98.8918 144.796 98.9156 145.637 98.9156 146.542C98.9315 147.446 98.9156 148.295 98.868 149.088C98.757 151.944 97.924 153.991 96.3691 155.228C94.8301 156.45 92.3233 157.061 88.8487 157.061ZM111.838 157.061C108.332 157.061 105.809 156.45 104.27 155.228C102.731 153.991 101.922 151.944 101.843 149.088C101.732 146.074 101.676 142.94 101.676 139.688C101.676 136.419 101.732 133.278 101.843 130.263C101.922 127.423 102.731 125.384 104.27 124.147C105.809 122.909 108.332 122.291 111.838 122.291C115.361 122.291 117.883 122.909 119.407 124.147C120.946 125.384 121.755 127.423 121.834 130.263C121.945 133.309 122.001 136.459 122.001 139.711C122.001 142.948 121.945 146.074 121.834 149.088C121.755 151.944 120.946 153.991 119.407 155.228C117.883 156.45 115.361 157.061 111.838 157.061ZM111.838 152.396C113.393 152.396 114.512 152.206 115.194 151.825C115.876 151.444 116.233 150.889 116.265 150.159C116.392 148.065 116.471 145.796 116.503 143.353C116.535 140.893 116.527 138.434 116.479 135.975C116.448 133.516 116.376 131.255 116.265 129.192C116.233 128.447 115.868 127.891 115.17 127.526C114.472 127.146 113.362 126.955 111.838 126.955C110.331 126.955 109.229 127.146 108.53 127.526C107.832 127.891 107.459 128.447 107.412 129.192C107.285 131.255 107.206 133.516 107.174 135.975C107.142 138.434 107.15 140.893 107.198 143.353C107.245 145.796 107.317 148.065 107.412 150.159C107.459 150.889 107.832 151.444 108.53 151.825C109.229 152.206 110.331 152.396 111.838 152.396ZM130.568 156.68H125.166V122.695H133.757L136.518 133.524L139.85 151.635H141.159L140.135 136.808L139.731 122.695H145.133V156.68H136.185L133.258 145.352L130.544 127.717H129.188L130.116 143.686L130.568 156.68ZM158.032 157.061C154.542 157.061 152.043 156.45 150.536 155.228C149.028 153.991 148.211 151.936 148.084 149.064C147.957 147.414 147.997 145.725 148.203 143.995H153.534C153.439 145.09 153.384 146.161 153.368 147.208C153.368 148.255 153.423 149.231 153.534 150.135C153.614 150.865 153.994 151.428 154.677 151.825C155.375 152.206 156.485 152.396 158.008 152.396C159.516 152.396 160.595 152.206 161.245 151.825C161.911 151.428 162.292 150.865 162.387 150.135C162.499 149.31 162.546 148.533 162.53 147.803C162.514 147.057 162.467 146.272 162.387 145.447C162.308 144.765 162.054 144.162 161.626 143.638C161.198 143.115 160.349 142.766 159.079 142.591L155.129 141.758C153.257 141.393 151.813 140.87 150.797 140.187C149.798 139.505 149.092 138.648 148.679 137.617C148.267 136.586 148.029 135.372 147.965 133.976C147.934 133.309 147.918 132.675 147.918 132.072C147.934 131.469 147.957 130.866 147.989 130.263C148.084 127.423 148.886 125.384 150.393 124.147C151.9 122.909 154.439 122.291 158.008 122.291C161.372 122.291 163.807 122.909 165.315 124.147C166.822 125.384 167.631 127.423 167.742 130.263C167.79 130.898 167.798 131.683 167.766 132.619C167.75 133.54 167.718 134.42 167.671 135.261H162.292C162.435 133.183 162.451 131.16 162.34 129.192C162.213 127.701 160.761 126.955 157.985 126.955C156.477 126.955 155.391 127.146 154.724 127.526C154.058 127.907 153.677 128.462 153.582 129.192C153.471 129.986 153.415 130.787 153.415 131.596C153.431 132.389 153.487 133.183 153.582 133.976C153.661 134.674 153.915 135.277 154.343 135.785C154.772 136.276 155.66 136.61 157.009 136.784L160.65 137.474C162.586 137.823 164.069 138.355 165.101 139.069C166.132 139.783 166.854 140.671 167.266 141.734C167.695 142.781 167.941 144.019 168.004 145.447C168.052 146.082 168.067 146.692 168.052 147.279C168.036 147.867 168.004 148.461 167.956 149.064C167.829 151.936 167.004 153.991 165.481 155.228C163.974 156.45 161.491 157.061 158.032 157.061ZM180.713 157.061C177.127 157.061 174.549 156.45 172.978 155.228C171.423 153.991 170.63 151.944 170.598 149.088C170.408 140.283 170.408 131.485 170.598 122.695H176.167C176.056 127.042 176 131.62 176 136.427C176 141.219 176.032 145.796 176.096 150.159C176.096 151.651 177.635 152.396 180.713 152.396C183.711 152.396 185.211 151.651 185.211 150.159C185.29 145.796 185.33 141.219 185.33 136.427C185.346 131.62 185.306 127.042 185.211 122.695H190.78C190.97 131.485 190.97 140.283 190.78 149.088C190.764 151.944 189.97 153.991 188.4 155.228C186.829 156.45 184.267 157.061 180.713 157.061ZM209.581 156.68H193.945V122.695H199.514V151.635H209.581V156.68ZM222.504 156.68H216.935V127.741H210.461V122.695H228.953V127.741H222.504V156.68ZM237.14 156.68H231.571V122.695H237.14V156.68ZM246.564 156.68H241.162V122.695H249.753L252.514 133.524L255.846 151.635H257.155L256.132 136.808L255.727 122.695H261.129V156.68H252.181L249.254 145.352L246.541 127.717H245.184L246.112 143.686L246.564 156.68ZM274.362 157.061C270.871 157.061 268.38 156.45 266.889 155.228C265.413 153.991 264.628 151.936 264.533 149.064C264.453 147.303 264.398 145.312 264.366 143.091C264.35 140.87 264.35 138.664 264.366 136.475C264.398 134.269 264.453 132.31 264.533 130.596C264.628 127.582 265.421 125.448 266.912 124.194C268.42 122.925 270.895 122.291 274.338 122.291C277.622 122.291 280.018 122.909 281.525 124.147C283.032 125.384 283.865 127.423 284.024 130.263C284.103 130.993 284.135 131.826 284.119 132.762C284.119 133.682 284.087 134.515 284.024 135.261H278.455C278.518 134.404 278.55 133.397 278.55 132.239C278.566 131.064 278.534 130.049 278.455 129.192C278.328 127.701 276.956 126.955 274.338 126.955C271.593 126.955 270.181 127.701 270.102 129.192C269.99 131.318 269.919 133.595 269.887 136.023C269.856 138.45 269.856 140.878 269.887 143.305C269.935 145.733 270.006 148.009 270.102 150.135C270.133 150.865 270.49 151.428 271.173 151.825C271.855 152.206 272.918 152.396 274.362 152.396C277.17 152.396 278.661 151.643 278.836 150.135C278.867 149.517 278.883 148.739 278.883 147.803C278.883 146.851 278.867 146.074 278.836 145.471H274.576V140.497H284.286C284.349 141.75 284.381 143.138 284.381 144.662C284.381 146.185 284.333 147.652 284.238 149.064C284.127 151.936 283.302 153.991 281.763 155.228C280.224 156.45 277.757 157.061 274.362 157.061Z" fill="white"/>
<path fill-rule="evenodd" clip-rule="evenodd" d="M81.668 37.4083V74.8171L115.831 91.7535C134.621 101.068 150.286 108.7 150.644 108.714C151.001 108.727 166.6 101.181 185.307 91.9438L219.322 75.1494L219.332 37.8394C219.337 17.3186 219.222 0.52936 219.076 0.52936C218.93 0.52936 203.665 8.01736 185.154 17.1694C166.642 26.3214 151.154 33.8094 150.735 33.8094C150.316 33.8094 144.476 31.0877 137.759 27.7607C131.041 24.4343 121.559 19.7402 116.687 17.33C111.814 14.9198 107.44 12.7374 106.965 12.4805C106.491 12.2236 100.605 9.31008 93.8852 6.00652L81.668 0V37.4083ZM118.977 45.0627V62.9294H104.263H89.5501V37.7832V12.6365L104.263 19.916L118.977 27.1955V45.0627ZM211.975 37.4941C211.959 50.635 211.811 61.7334 211.647 62.1577C211.394 62.8103 209.405 62.9294 198.786 62.9294H186.224L186.362 44.0794L186.5 25.2294L198.804 19.1417C205.571 15.7934 211.31 13.1773 211.556 13.3281C211.803 13.4789 211.991 24.3537 211.975 37.4941ZM178.355 38.78C178.355 44.199 178.161 47.3294 177.823 47.3294C176.58 47.3294 160.389 38.9007 160.817 38.4764C161.629 37.673 177.55 29.8366 177.961 30.0378C178.178 30.1439 178.355 34.0777 178.355 38.78ZM134.889 35.062C138.294 36.7453 141.2 38.3157 141.348 38.5512C141.564 38.896 131.527 44.3113 127.778 45.8728C126.927 46.2275 126.859 45.6976 126.859 38.7494C126.859 31.8027 126.927 31.2712 127.778 31.6222C128.284 31.8313 131.484 33.3788 134.889 35.062ZM164.693 49.8352L178.092 56.499L178.355 62.9642L178.618 69.4294L194.382 69.5609C203.052 69.6332 210.475 69.8142 210.877 69.9629C211.279 70.1116 197.914 77.0052 181.177 85.2821L150.746 100.331L120.434 85.3336C103.763 77.0848 90.27 70.1906 90.4497 70.0128C90.6294 69.835 98.8883 69.6894 108.803 69.6894H126.83L126.976 62.2872L127.121 54.885L138.682 49.0786C145.04 45.8848 150.479 43.2494 150.768 43.2219C151.057 43.1943 157.323 46.1703 164.693 49.8352Z" fill="white"/>
</g>
</svg>
