<svg width="386" height="70" viewBox="0 0 386 70" fill="none" xmlns="http://www.w3.org/2000/svg">
<path d="M4.84024 70C3.82153 70 3.09389 69.8199 2.65731 69.4598C2.22542 69.0949 1.99773 68.4916 1.97425 67.6497C1.95548 67.1258 1.9414 66.5318 1.93201 65.8676C1.92731 65.2035 1.92731 64.5393 1.93201 63.8751C1.9414 63.211 1.95548 62.6146 1.97425 62.0861C1.99303 61.3611 2.22541 60.7905 2.67138 60.3742C3.11736 59.9579 3.83796 59.7498 4.83319 59.7498C5.83311 59.7498 6.55842 59.9322 7.00909 60.297C7.46445 60.6619 7.70622 61.2629 7.73439 62.1001C7.74378 62.3106 7.74611 62.5562 7.74141 62.8368C7.73672 63.1128 7.72968 63.3583 7.72029 63.5735H6.07253C6.08192 63.3256 6.08661 63.0286 6.08661 62.6824C6.0913 62.3316 6.08897 62.0346 6.07958 61.7914C6.07489 61.5716 5.97396 61.4079 5.77679 61.3003C5.57962 61.1881 5.26508 61.1319 4.83319 61.1319C4.42007 61.1319 4.11728 61.1881 3.9248 61.3003C3.73703 61.4079 3.63609 61.5716 3.62201 61.7914C3.59854 62.4182 3.5821 63.0894 3.57272 63.805C3.56333 64.5159 3.56333 65.2292 3.57272 65.9448C3.5821 66.6604 3.59854 67.3316 3.62201 67.9584C3.63609 68.1782 3.73938 68.3443 3.93185 68.4565C4.12433 68.5688 4.42712 68.6249 4.84024 68.6249C5.2956 68.6249 5.62655 68.5688 5.83311 68.4565C6.03967 68.3443 6.14764 68.1782 6.15703 67.9584C6.16642 67.7105 6.16877 67.4111 6.16408 67.0603C6.15938 66.7049 6.15234 66.4032 6.14295 66.1553H7.79776C7.81184 66.3845 7.81888 66.6324 7.81888 66.899C7.82358 67.1656 7.81889 67.4158 7.80481 67.6497C7.77194 68.4916 7.52547 69.0949 7.06541 69.4598C6.61004 69.8199 5.86833 70 4.84024 70Z" fill="white"/>
<path d="M17.2061 70C16.1686 70 15.4222 69.8199 14.9668 69.4598C14.5115 69.0949 14.272 68.4916 14.2486 67.6497C14.2157 66.761 14.1993 65.8372 14.1993 64.8784C14.1993 63.9149 14.2157 62.9888 14.2486 62.1001C14.272 61.2629 14.5115 60.6619 14.9668 60.297C15.4222 59.9322 16.1686 59.7498 17.2061 59.7498C18.2483 59.7498 18.9947 59.9322 19.4454 60.297C19.9007 60.6619 20.1401 61.2629 20.1636 62.1001C20.1965 62.9982 20.2129 63.9266 20.2129 64.8854C20.2129 65.8396 20.1965 66.761 20.1636 67.6497C20.1401 68.4916 19.9007 69.0949 19.4454 69.4598C18.9947 69.8199 18.2483 70 17.2061 70ZM17.2061 68.6249C17.6661 68.6249 17.9971 68.5688 18.199 68.4565C18.4008 68.3443 18.5065 68.1805 18.5159 67.9654C18.5534 67.348 18.5769 66.6791 18.5863 65.9589C18.5957 65.2339 18.5933 64.5089 18.5792 63.7839C18.5698 63.059 18.5487 62.3924 18.5159 61.7844C18.5065 61.5646 18.3985 61.4009 18.1919 61.2933C17.9854 61.181 17.6568 61.1249 17.2061 61.1249C16.7601 61.1249 16.4338 61.181 16.2273 61.2933C16.0207 61.4009 15.9104 61.5646 15.8963 61.7844C15.8588 62.3924 15.8353 63.059 15.8259 63.7839C15.8165 64.5089 15.8189 65.2339 15.833 65.9589C15.847 66.6791 15.8682 67.348 15.8963 67.9654C15.9104 68.1805 16.0207 68.3443 16.2273 68.4565C16.4338 68.5688 16.7601 68.6249 17.2061 68.6249Z" fill="white"/>
<path d="M28.3115 69.8877H26.713V59.8691H29.2551L30.0719 63.0613L31.0577 68.4004H31.445L31.1423 64.0295L31.0225 59.8691H32.621V69.8877H29.9733L29.1072 66.5482L28.3044 61.3494H27.9031L28.1777 66.0571L28.3115 69.8877Z" fill="white"/>
<path d="M42.0012 70C40.9684 70 40.229 69.8199 39.783 69.4598C39.3371 69.0949 39.0953 68.4892 39.0577 67.6427C39.0202 67.1562 39.0319 66.6581 39.093 66.1483H40.6703C40.6421 66.471 40.6257 66.7867 40.621 67.0954C40.621 67.4041 40.6374 67.6918 40.6703 67.9584C40.6938 68.1735 40.8064 68.3396 41.0083 68.4565C41.2148 68.5688 41.5435 68.6249 41.9941 68.6249C42.4401 68.6249 42.7593 68.5688 42.9518 68.4565C43.149 68.3396 43.2616 68.1735 43.2898 67.9584C43.3227 67.7152 43.3367 67.486 43.3321 67.2708C43.3274 67.051 43.3133 66.8195 43.2898 66.5762C43.2663 66.3751 43.1912 66.1974 43.0645 66.043C42.9377 65.8887 42.6866 65.7858 42.311 65.7344L41.1421 65.4888C40.5881 65.3812 40.1609 65.2269 39.8605 65.0257C39.5648 64.8246 39.3558 64.5721 39.2338 64.268C39.1117 63.964 39.0413 63.6062 39.0225 63.1946C39.0131 62.9982 39.0084 62.8111 39.0084 62.6333C39.0131 62.4556 39.0202 62.2779 39.0296 62.1001C39.0577 61.2629 39.2948 60.6619 39.7408 60.297C40.1868 59.9322 40.9379 59.7498 41.9941 59.7498C42.9894 59.7498 43.71 59.9322 44.1559 60.297C44.6019 60.6619 44.8413 61.2629 44.8742 62.1001C44.8883 62.2872 44.8906 62.5187 44.8812 62.7947C44.8765 63.066 44.8672 63.3256 44.8531 63.5735H43.2616C43.3039 62.9607 43.3086 62.3644 43.2757 61.7844C43.2382 61.3447 42.8086 61.1249 41.9871 61.1249C41.5411 61.1249 41.2196 61.181 41.0224 61.2933C40.8252 61.4056 40.7125 61.5693 40.6844 61.7844C40.6515 62.0183 40.6351 62.2545 40.6351 62.493C40.6398 62.7269 40.6562 62.9607 40.6844 63.1946C40.7078 63.4004 40.783 63.5781 40.9097 63.7278C41.0365 63.8728 41.2994 63.971 41.6984 64.0225L42.7758 64.2259C43.3485 64.3288 43.7874 64.4855 44.0926 64.696C44.3977 64.9065 44.6113 65.1684 44.7334 65.4818C44.8601 65.7905 44.9329 66.1553 44.9517 66.5762C44.9657 66.7633 44.9704 66.9434 44.9657 67.1165C44.961 67.2895 44.9516 67.4649 44.9376 67.6427C44.9 68.4892 44.6559 69.0949 44.2052 69.4598C43.7593 69.8199 43.0246 70 42.0012 70Z" fill="white"/>
<path d="M54.2755 70C53.2145 70 52.4517 69.8199 51.9869 69.4598C51.5269 69.0949 51.2921 68.4916 51.2827 67.6497C51.2264 65.0538 51.2264 62.4603 51.2827 59.8691H52.9305C52.8977 61.1506 52.8812 62.5 52.8812 63.9172C52.8812 65.3298 52.8906 66.6791 52.9094 67.9654C52.9094 68.4051 53.3648 68.6249 54.2755 68.6249C55.1627 68.6249 55.6064 68.4051 55.6064 67.9654C55.6299 66.6791 55.6416 65.3298 55.6416 63.9172C55.6463 62.5 55.6345 61.1506 55.6064 59.8691H57.2541C57.3105 62.4603 57.3105 65.0538 57.2541 67.6497C57.2494 68.4916 57.0147 69.0949 56.55 69.4598C56.0852 69.8199 55.3271 70 54.2755 70Z" fill="white"/>
<path d="M68.3806 69.8877H63.7542V59.8691H65.402V68.4004H68.3806V69.8877Z" fill="white"/>
<path d="M77.7678 69.8877H76.1201V61.3564H74.2047V59.8691H79.6762V61.3564H77.7678V69.8877Z" fill="white"/>
<path d="M88.7676 70C87.7301 70 86.9837 69.8199 86.5283 69.4598C86.073 69.0949 85.8336 68.4916 85.8101 67.6497C85.7772 66.761 85.7608 65.8372 85.7608 64.8784C85.7608 63.9149 85.7772 62.9888 85.8101 62.1001C85.8336 61.2629 86.073 60.6619 86.5283 60.297C86.9837 59.9322 87.7301 59.7498 88.7676 59.7498C89.8098 59.7498 90.5562 59.9322 91.0069 60.297C91.4622 60.6619 91.7017 61.2629 91.7251 62.1001C91.758 62.9982 91.7744 63.9266 91.7744 64.8854C91.7744 65.8396 91.758 66.761 91.7251 67.6497C91.7017 68.4916 91.4622 69.0949 91.0069 69.4598C90.5562 69.8199 89.8098 70 88.7676 70ZM88.7676 68.6249C89.2277 68.6249 89.5586 68.5688 89.7605 68.4565C89.9623 68.3443 90.068 68.1805 90.0774 67.9654C90.1149 67.348 90.1384 66.6791 90.1478 65.9589C90.1572 65.2339 90.1548 64.5089 90.1407 63.7839C90.1314 63.059 90.1102 62.3924 90.0774 61.7844C90.068 61.5646 89.96 61.4009 89.7535 61.2933C89.5469 61.181 89.2183 61.1249 88.7676 61.1249C88.3216 61.1249 87.9954 61.181 87.7888 61.2933C87.5823 61.4009 87.4719 61.5646 87.4578 61.7844C87.4203 62.3924 87.3968 63.059 87.3874 63.7839C87.378 64.5089 87.3804 65.2339 87.3945 65.9589C87.4086 66.6791 87.4297 67.348 87.4578 67.9654C87.4719 68.1805 87.5823 68.3443 87.7888 68.4565C87.9954 68.5688 88.3216 68.6249 88.7676 68.6249Z" fill="white"/>
<path d="M99.9223 69.8877H98.2745V59.8691H100.972C101.981 59.8691 102.711 60.0468 103.161 60.4023C103.617 60.7577 103.863 61.3447 103.901 62.1633C103.934 62.5515 103.948 62.8836 103.943 63.1595C103.943 63.4355 103.929 63.7606 103.901 64.1347C103.877 64.6539 103.758 65.0772 103.542 65.4046C103.326 65.7273 102.995 65.9729 102.549 66.1413L104.19 69.8877H102.429L100.979 66.4219H99.9223V69.8877ZM99.9223 61.3564V64.9345H100.95C101.396 64.9345 101.72 64.8737 101.922 64.7521C102.124 64.6305 102.234 64.4551 102.253 64.2259C102.314 63.5056 102.314 62.7877 102.253 62.0721C102.234 61.8382 102.124 61.6605 101.922 61.5388C101.72 61.4172 101.403 61.3564 100.972 61.3564H99.9223Z" fill="white"/>
<path d="M112.323 69.8877H110.676V59.8691H112.323V69.8877Z" fill="white"/>
<path d="M120.394 69.8877H118.697L120.401 59.8691H123.26L124.964 69.8877H123.274L122.915 67.6427H120.76L120.394 69.8877ZM121.218 63.9453L120.908 66.1553H122.76L122.457 63.9453L122.091 61.3564H121.584L121.218 63.9453Z" fill="white"/>
<path d="M146.312 69.8877H141.39V59.8691H146.312V61.3564H143.038V64.0575H146.122V65.5449H143.038V68.4004H146.312V69.8877Z" fill="white"/>
<path d="M154.305 69.8877H152.657V59.8691H155.27L155.946 63.7208L156.023 68.3934H156.284L156.354 63.7208L157.037 59.8691H159.643V69.8877H157.988V66.8358L158.312 61.3564H158.037L157.671 66.9411L157.016 69.8737H155.291L154.643 66.9411L154.256 61.3564H154.002L154.305 66.8358V69.8877Z" fill="white"/>
<path d="M179.308 70C178.29 70 177.562 69.8199 177.125 69.4598C176.693 69.0949 176.466 68.4916 176.442 67.6497C176.424 67.1258 176.409 66.5318 176.4 65.8676C176.395 65.2035 176.395 64.5393 176.4 63.8751C176.409 63.211 176.424 62.6146 176.442 62.0861C176.461 61.3611 176.693 60.7905 177.139 60.3742C177.585 59.9579 178.306 59.7498 179.301 59.7498C180.301 59.7498 181.026 59.9322 181.477 60.297C181.933 60.6619 182.174 61.2629 182.202 62.1001C182.212 62.3106 182.214 62.5562 182.209 62.8368C182.205 63.1128 182.198 63.3583 182.188 63.5735H180.541C180.55 63.3256 180.555 63.0286 180.555 62.6824C180.559 62.3316 180.557 62.0346 180.548 61.7914C180.543 61.5716 180.442 61.4079 180.245 61.3003C180.048 61.1881 179.733 61.1319 179.301 61.1319C178.888 61.1319 178.585 61.1881 178.393 61.3003C178.205 61.4079 178.104 61.5716 178.09 61.7914C178.067 62.4182 178.05 63.0894 178.041 63.805C178.031 64.5159 178.031 65.2292 178.041 65.9448C178.05 66.6604 178.067 67.3316 178.09 67.9584C178.104 68.1782 178.207 68.3443 178.4 68.4565C178.592 68.5688 178.895 68.6249 179.308 68.6249C179.764 68.6249 180.095 68.5688 180.301 68.4565C180.508 68.3443 180.616 68.1782 180.625 67.9584C180.634 67.7105 180.637 67.4111 180.632 67.0603C180.627 66.7049 180.62 66.4032 180.611 66.1553H182.266C182.28 66.3845 182.287 66.6324 182.287 66.899C182.292 67.1656 182.287 67.4158 182.273 67.6497C182.24 68.4916 181.994 69.0949 181.533 69.4598C181.078 69.8199 180.336 70 179.308 70Z" fill="white"/>
<path d="M191.674 70C190.637 70 189.89 69.8199 189.435 69.4598C188.98 69.0949 188.74 68.4916 188.717 67.6497C188.684 66.761 188.667 65.8372 188.667 64.8784C188.667 63.9149 188.684 62.9888 188.717 62.1001C188.74 61.2629 188.98 60.6619 189.435 60.297C189.89 59.9322 190.637 59.7498 191.674 59.7498C192.716 59.7498 193.463 59.9322 193.913 60.297C194.369 60.6619 194.608 61.2629 194.632 62.1001C194.665 62.9982 194.681 63.9266 194.681 64.8854C194.681 65.8396 194.665 66.761 194.632 67.6497C194.608 68.4916 194.369 69.0949 193.913 69.4598C193.463 69.8199 192.716 70 191.674 70ZM191.674 68.6249C192.134 68.6249 192.465 68.5688 192.667 68.4565C192.869 68.3443 192.975 68.1805 192.984 67.9654C193.021 67.348 193.045 66.6791 193.054 65.9589C193.064 65.2339 193.061 64.5089 193.047 63.7839C193.038 63.059 193.017 62.3924 192.984 61.7844C192.975 61.5646 192.867 61.4009 192.66 61.2933C192.453 61.181 192.125 61.1249 191.674 61.1249C191.228 61.1249 190.902 61.181 190.695 61.2933C190.489 61.4009 190.378 61.5646 190.364 61.7844C190.327 62.3924 190.303 63.059 190.294 63.7839C190.285 64.5089 190.287 65.2339 190.301 65.9589C190.315 66.6791 190.336 67.348 190.364 67.9654C190.378 68.1805 190.489 68.3443 190.695 68.4565C190.902 68.5688 191.228 68.6249 191.674 68.6249Z" fill="white"/>
<path d="M202.829 69.8877H201.181V59.8691H203.794L204.47 63.7208L204.547 68.3934H204.808L204.878 63.7208L205.561 59.8691H208.166V69.8877H206.512V66.8358L206.836 61.3564H206.561L206.195 66.9411L205.54 69.8737H203.815L203.167 66.9411L202.78 61.3564H202.526L202.829 66.8358V69.8877Z" fill="white"/>
<path d="M219.652 69.8877H214.73V59.8691H219.652V61.3564H216.378V64.0575H219.462V65.5449H216.378V68.4004H219.652V69.8877Z" fill="white"/>
<path d="M227.645 69.8877H225.997V59.8691H228.694C229.704 59.8691 230.434 60.0468 230.884 60.4023C231.34 60.7577 231.586 61.3447 231.624 62.1633C231.656 62.5515 231.671 62.8836 231.666 63.1595C231.666 63.4355 231.652 63.7606 231.624 64.1347C231.6 64.6539 231.48 65.0772 231.264 65.4046C231.049 65.7273 230.718 65.9729 230.272 66.1413L231.912 69.8877H230.152L228.701 66.4219H227.645V69.8877ZM227.645 61.3564V64.9345H228.673C229.119 64.9345 229.443 64.8737 229.645 64.7521C229.847 64.6305 229.957 64.4551 229.976 64.2259C230.037 63.5056 230.037 62.7877 229.976 62.0721C229.957 61.8382 229.847 61.6605 229.645 61.5388C229.443 61.4172 229.126 61.3564 228.694 61.3564H227.645Z" fill="white"/>
<path d="M241.067 70C240.048 70 239.321 69.8199 238.884 69.4598C238.452 69.0949 238.225 68.4916 238.201 67.6497C238.182 67.1258 238.168 66.5318 238.159 65.8676C238.154 65.2035 238.154 64.5393 238.159 63.8751C238.168 63.211 238.182 62.6146 238.201 62.0861C238.22 61.3611 238.452 60.7905 238.898 60.3742C239.344 59.9579 240.065 59.7498 241.06 59.7498C242.06 59.7498 242.785 59.9322 243.236 60.297C243.691 60.6619 243.933 61.2629 243.961 62.1001C243.971 62.3106 243.973 62.5562 243.968 62.8368C243.964 63.1128 243.957 63.3583 243.947 63.5735H242.299C242.309 63.3256 242.314 63.0286 242.314 62.6824C242.318 62.3316 242.316 62.0346 242.306 61.7914C242.302 61.5716 242.201 61.4079 242.004 61.3003C241.807 61.1881 241.492 61.1319 241.06 61.1319C240.647 61.1319 240.344 61.1881 240.152 61.3003C239.964 61.4079 239.863 61.5716 239.849 61.7914C239.825 62.4182 239.809 63.0894 239.8 63.805C239.79 64.5159 239.79 65.2292 239.8 65.9448C239.809 66.6604 239.825 67.3316 239.849 67.9584C239.863 68.1782 239.966 68.3443 240.159 68.4565C240.351 68.5688 240.654 68.6249 241.067 68.6249C241.523 68.6249 241.853 68.5688 242.06 68.4565C242.267 68.3443 242.375 68.1782 242.384 67.9584C242.393 67.7105 242.396 67.4111 242.391 67.0603C242.386 66.7049 242.379 66.4032 242.37 66.1553H244.025C244.039 66.3845 244.046 66.6324 244.046 66.899C244.05 67.1656 244.046 67.4158 244.032 67.6497C243.999 68.4916 243.752 69.0949 243.292 69.4598C242.837 69.8199 242.095 70 241.067 70Z" fill="white"/>
<path d="M252.327 69.8877H250.68V59.8691H252.327V69.8877Z" fill="white"/>
<path d="M262.025 70C260.987 70 260.241 69.8199 259.785 69.4598C259.33 69.0949 259.09 68.4916 259.067 67.6497C259.034 66.761 259.018 65.8372 259.018 64.8784C259.018 63.9149 259.034 62.9888 259.067 62.1001C259.09 61.2629 259.33 60.6619 259.785 60.297C260.241 59.9322 260.987 59.7498 262.025 59.7498C263.067 59.7498 263.813 59.9322 264.264 60.297C264.719 60.6619 264.959 61.2629 264.982 62.1001C265.015 62.9982 265.031 63.9266 265.031 64.8854C265.031 65.8396 265.015 66.761 264.982 67.6497C264.959 68.4916 264.719 69.0949 264.264 69.4598C263.813 69.8199 263.067 70 262.025 70ZM262.025 68.6249C262.485 68.6249 262.816 68.5688 263.017 68.4565C263.219 68.3443 263.325 68.1805 263.334 67.9654C263.372 67.348 263.395 66.6791 263.405 65.9589C263.414 65.2339 263.412 64.5089 263.398 63.7839C263.388 63.059 263.367 62.3924 263.334 61.7844C263.325 61.5646 263.217 61.4009 263.01 61.2933C262.804 61.181 262.475 61.1249 262.025 61.1249C261.579 61.1249 261.252 61.181 261.046 61.2933C260.839 61.4009 260.729 61.5646 260.715 61.7844C260.677 62.3924 260.654 63.059 260.644 63.7839C260.635 64.5089 260.637 65.2339 260.651 65.9589C260.665 66.6791 260.687 67.348 260.715 67.9654C260.729 68.1805 260.839 68.3443 261.046 68.4565C261.252 68.5688 261.579 68.6249 262.025 68.6249Z" fill="white"/>
<path d="M286.697 69.8877H281.774V59.8691H286.697V61.3564H283.422V64.0575H286.506V65.5449H283.422V68.4004H286.697V69.8877Z" fill="white"/>
<path d="M294.288 69.8877H292.683L294.521 64.696L292.76 59.8691H294.366L295.112 62.2194L295.542 64.0225H295.908L296.33 62.2194L297.07 59.8691H298.675L296.964 64.7521L298.746 69.8877H297.14L296.351 67.4111L295.908 65.5098H295.542L295.091 67.4111L294.288 69.8877Z" fill="white"/>
<path d="M308.098 69.8877H306.45V61.3564H304.534V59.8691H310.006V61.3564H308.098V69.8877Z" fill="white"/>
<path d="M321.076 69.8877H316.154V59.8691H321.076V61.3564H317.802V64.0575H320.886V65.5449H317.802V68.4004H321.076V69.8877Z" fill="white"/>
<path d="M329.069 69.8877H327.421V59.8691H330.118C331.128 59.8691 331.858 60.0468 332.308 60.4023C332.764 60.7577 333.01 61.3447 333.048 62.1633C333.081 62.5515 333.095 62.8836 333.09 63.1595C333.09 63.4355 333.076 63.7606 333.048 64.1347C333.024 64.6539 332.904 65.0772 332.688 65.4046C332.473 65.7273 332.142 65.9729 331.696 66.1413L333.336 69.8877H331.576L330.125 66.4219H329.069V69.8877ZM329.069 61.3564V64.9345H330.097C330.543 64.9345 330.867 64.8737 331.069 64.7521C331.271 64.6305 331.381 64.4551 331.4 64.2259C331.461 63.5056 331.461 62.7877 331.4 62.0721C331.381 61.8382 331.271 61.6605 331.069 61.5388C330.867 61.4172 330.55 61.3564 330.118 61.3564H329.069Z" fill="white"/>
<path d="M341.47 69.8877H339.822V59.8691H341.47V69.8877Z" fill="white"/>
<path d="M351.167 70C350.13 70 349.383 69.8199 348.928 69.4598C348.473 69.0949 348.233 68.4916 348.21 67.6497C348.177 66.761 348.16 65.8372 348.16 64.8784C348.16 63.9149 348.177 62.9888 348.21 62.1001C348.233 61.2629 348.473 60.6619 348.928 60.297C349.383 59.9322 350.13 59.7498 351.167 59.7498C352.209 59.7498 352.956 59.9322 353.406 60.297C353.862 60.6619 354.101 61.2629 354.125 62.1001C354.158 62.9982 354.174 63.9266 354.174 64.8854C354.174 65.8396 354.158 66.761 354.125 67.6497C354.101 68.4916 353.862 69.0949 353.406 69.4598C352.956 69.8199 352.209 70 351.167 70ZM351.167 68.6249C351.627 68.6249 351.958 68.5688 352.16 68.4565C352.362 68.3443 352.468 68.1805 352.477 67.9654C352.514 67.348 352.538 66.6791 352.547 65.9589C352.557 65.2339 352.554 64.5089 352.54 63.7839C352.531 63.059 352.51 62.3924 352.477 61.7844C352.468 61.5646 352.36 61.4009 352.153 61.2933C351.946 61.181 351.618 61.1249 351.167 61.1249C350.721 61.1249 350.395 61.181 350.188 61.2933C349.982 61.4009 349.871 61.5646 349.857 61.7844C349.82 62.3924 349.796 63.059 349.787 63.7839C349.778 64.5089 349.78 65.2339 349.794 65.9589C349.808 66.6791 349.829 67.348 349.857 67.9654C349.871 68.1805 349.982 68.3443 350.188 68.4565C350.395 68.5688 350.721 68.6249 351.167 68.6249Z" fill="white"/>
<path d="M362.322 69.8877H360.674V59.8691H363.371C364.38 59.8691 365.11 60.0468 365.561 60.4023C366.016 60.7577 366.263 61.3447 366.3 62.1633C366.333 62.5515 366.347 62.8836 366.343 63.1595C366.343 63.4355 366.329 63.7606 366.3 64.1347C366.277 64.6539 366.157 65.0772 365.941 65.4046C365.725 65.7273 365.394 65.9729 364.948 66.1413L366.589 69.8877H364.829L363.378 66.4219H362.322V69.8877ZM362.322 61.3564V64.9345H363.35C363.796 64.9345 364.12 64.8737 364.322 64.7521C364.524 64.6305 364.634 64.4551 364.653 64.2259C364.714 63.5056 364.714 62.7877 364.653 62.0721C364.634 61.8382 364.524 61.6605 364.322 61.5388C364.12 61.4172 363.803 61.3564 363.371 61.3564H362.322Z" fill="white"/>
<path d="M374.54 69.8877H372.885V68.2671H374.54V69.8877Z" fill="white"/>
<path d="M379.625 69.8877H377.971V68.2671H379.625V69.8877Z" fill="white"/>
<path d="M384.711 69.8877H383.056V68.2671H384.711V69.8877Z" fill="white"/>
<path d="M13.656 47.2729C8.89294 47.2729 5.4938 46.4424 3.45865 44.7815C1.44516 43.0989 0.373461 40.3055 0.243558 36.4011C0.135305 34.0067 0.0595388 31.2996 0.0162379 28.2796C-0.00541262 25.2597 -0.00541262 22.2613 0.0162379 19.2845C0.0595388 16.2861 0.135305 13.6221 0.243558 11.2924C0.373461 7.19394 1.45599 4.29264 3.49113 2.58853C5.54793 0.862843 8.92541 0 13.6236 0C18.1052 0 21.3744 0.841273 23.4312 2.52381C25.488 4.20635 26.6247 6.97823 26.8412 10.8394C26.9494 11.8317 26.9927 12.9642 26.9711 14.2369C26.9711 15.488 26.9278 16.6205 26.8412 17.6343H19.2419C19.3285 16.4695 19.3718 15.0997 19.3718 13.525C19.3934 11.9288 19.3501 10.5482 19.2419 9.3834C19.0686 7.35572 17.1959 6.34188 13.6236 6.34188C9.87803 6.34188 7.95115 7.35572 7.84289 9.3834C7.69134 12.2739 7.59391 15.3694 7.55061 18.6697C7.50731 21.9701 7.50731 25.2705 7.55061 28.5708C7.61556 31.8712 7.71299 34.9666 7.84289 37.8572C7.88619 38.8494 8.37331 39.6152 9.30429 40.1545C10.2353 40.6722 11.6859 40.931 13.656 40.931C17.4882 40.931 19.5233 39.9064 19.7615 37.8572C19.8048 37.0159 19.8264 35.9589 19.8264 34.6862C19.8264 33.392 19.8048 32.335 19.7615 31.5153H13.9483V24.7528H27.1984C27.285 26.4569 27.3283 28.3443 27.3283 30.4152C27.3283 32.486 27.2634 34.4813 27.1335 36.4011C26.9819 40.3055 25.8561 43.0989 23.756 44.7815C21.6559 46.4424 18.2892 47.2729 13.656 47.2729Z" fill="white"/>
<path d="M39.0845 46.7552H31.4852V0.550062H43.9234C48.5783 0.550062 51.9449 1.36976 54.0234 3.00916C56.1235 4.64856 57.2601 7.35572 57.4333 11.1307C57.5849 12.921 57.6498 14.4526 57.6282 15.7253C57.6282 16.998 57.5632 18.4972 57.4333 20.2228C57.3251 22.6172 56.773 24.5694 55.7771 26.0794C54.7811 27.5678 53.2548 28.7003 51.198 29.4768L58.7648 46.7552H50.6459L43.9559 30.7711H39.0845V46.7552ZM39.0845 7.40965V23.9115H43.826C45.8828 23.9115 47.3767 23.6311 48.3076 23.0702C49.2386 22.5094 49.7474 21.7005 49.834 20.6435C50.1154 17.3215 50.1154 14.0104 49.834 10.71C49.7474 9.63147 49.2386 8.81177 48.3076 8.25092C47.3767 7.69007 45.9153 7.40965 43.9234 7.40965H39.0845Z" fill="white"/>
<path d="M75.6522 47.2729C70.7592 47.2729 67.241 46.4424 65.0976 44.7815C62.9758 43.0989 61.8933 40.3163 61.85 36.4335C61.5902 24.4616 61.5902 12.5004 61.85 0.550062H69.4493C69.2978 6.46052 69.222 12.6838 69.222 19.2198C69.222 25.7342 69.2653 31.9575 69.3519 37.8895C69.3519 39.9172 71.452 40.931 75.6522 40.931C79.7441 40.931 81.7901 39.9172 81.7901 37.8895C81.8984 31.9575 81.9525 25.7342 81.9525 19.2198C81.9741 12.6838 81.92 6.46052 81.7901 0.550062H89.3894C89.6492 12.5004 89.6492 24.4616 89.3894 36.4335C89.3678 40.3163 88.2853 43.0989 86.1419 44.7815C83.9985 46.4424 80.5019 47.2729 75.6522 47.2729Z" fill="white"/>
<path d="M119.179 47.2729C114.481 47.2729 111.125 46.4424 109.112 44.7815C107.12 43.0989 106.07 40.3163 105.962 36.4335C105.875 34.0175 105.81 31.278 105.767 28.2149C105.745 25.1518 105.745 22.0887 105.767 19.0257C105.81 15.9626 105.875 13.2123 105.962 10.7747C106.048 7.43122 107.12 4.79956 109.177 2.87973C111.234 0.959913 114.557 0 119.147 0C123.759 0 127.104 0.841273 129.182 2.52381C131.282 4.20635 132.397 6.97823 132.527 10.8394C132.57 11.8101 132.581 12.9426 132.559 14.2369C132.538 15.5096 132.505 16.6421 132.462 17.6343H124.863C124.906 16.4911 124.928 15.1213 124.928 13.525C124.949 11.9072 124.938 10.5375 124.895 9.41576C124.874 8.40192 124.408 7.64693 123.499 7.1508C122.589 6.63309 121.139 6.37424 119.147 6.37424C117.242 6.37424 115.845 6.63309 114.958 7.1508C114.092 7.64693 113.626 8.40192 113.561 9.41576C113.453 12.3063 113.377 15.4017 113.334 18.7021C113.29 21.9809 113.29 25.2705 113.334 28.5708C113.377 31.8712 113.453 34.9666 113.561 37.8572C113.626 38.871 114.102 39.6368 114.99 40.1545C115.878 40.6722 117.274 40.931 119.179 40.931C121.28 40.931 122.806 40.6722 123.759 40.1545C124.711 39.6368 125.209 38.871 125.252 37.8572C125.296 36.7139 125.307 35.3334 125.285 33.7155C125.263 32.0761 125.231 30.6848 125.187 29.5415H132.819C132.884 30.5985 132.917 31.7418 132.917 32.9713C132.938 34.2009 132.917 35.3549 132.852 36.4335C132.7 40.3163 131.564 43.0989 129.442 44.7815C127.342 46.4424 123.921 47.2729 119.179 47.2729Z" fill="white"/>
<path d="M150.551 47.2729C145.766 47.2729 142.324 46.4424 140.224 44.7815C138.124 43.0989 137.019 40.3163 136.911 36.4335C136.76 32.335 136.684 28.0747 136.684 23.6526C136.684 19.209 136.76 14.9379 136.911 10.8394C137.019 6.97823 138.124 4.20635 140.224 2.52381C142.324 0.841273 145.766 0 150.551 0C155.357 0 158.8 0.841273 160.878 2.52381C162.978 4.20635 164.083 6.97823 164.191 10.8394C164.342 14.9811 164.418 19.2629 164.418 23.685C164.418 28.0855 164.342 32.335 164.191 36.4335C164.083 40.3163 162.978 43.0989 160.878 44.7815C158.8 46.4424 155.357 47.2729 150.551 47.2729ZM150.551 40.931C152.673 40.931 154.199 40.6722 155.13 40.1545C156.061 39.6368 156.548 38.8818 156.591 37.8895C156.765 35.0421 156.873 31.9575 156.916 28.6355C156.96 25.292 156.949 21.9485 156.884 18.605C156.84 15.2615 156.743 12.1876 156.591 9.3834C156.548 8.36956 156.05 7.61458 155.098 7.11844C154.145 6.60074 152.629 6.34188 150.551 6.34188C148.494 6.34188 146.989 6.60074 146.037 7.11844C145.084 7.61458 144.575 8.36956 144.51 9.3834C144.337 12.1876 144.229 15.2615 144.186 18.605C144.142 21.9485 144.153 25.292 144.218 28.6355C144.283 31.9575 144.381 35.0421 144.51 37.8895C144.575 38.8818 145.084 39.6368 146.037 40.1545C146.989 40.6722 148.494 40.931 150.551 40.931Z" fill="white"/>
<path d="M176.109 46.7552H168.737V0.550062H180.461L184.228 15.2723L188.775 39.8956H190.561L189.165 19.7375L188.613 0.550062H195.985V46.7552H183.774L179.779 31.3535L176.077 7.37729H174.226L175.492 29.0885L176.109 46.7552Z" fill="white"/>
<path d="M213.586 47.2729C208.823 47.2729 205.413 46.4424 203.357 44.7815C201.3 43.0989 200.185 40.3055 200.012 36.4011C199.838 34.1577 199.892 31.8604 200.174 29.5092H207.448C207.319 30.9976 207.243 32.4536 207.221 33.8773C207.221 35.301 207.297 36.6276 207.448 37.8572C207.557 38.8494 208.076 39.6152 209.007 40.1545C209.96 40.6722 211.475 40.931 213.554 40.931C215.611 40.931 217.083 40.6722 217.971 40.1545C218.88 39.6152 219.4 38.8494 219.529 37.8572C219.681 36.7355 219.746 35.6785 219.724 34.6862C219.703 33.6724 219.638 32.6046 219.529 31.4829C219.421 30.5554 219.075 29.7357 218.49 29.0238C217.906 28.312 216.747 27.8374 215.015 27.6001L209.624 26.4677C207.07 25.9715 205.099 25.2597 203.714 24.3321C202.35 23.4046 201.386 22.2397 200.823 20.8376C200.26 19.4355 199.936 17.7853 199.849 15.8871C199.806 14.9811 199.784 14.1182 199.784 13.2985C199.806 12.4788 199.838 11.6591 199.882 10.8394C200.012 6.97823 201.105 4.20635 203.162 2.52381C205.218 0.841273 208.683 0 213.554 0C218.144 0 221.467 0.841273 223.524 2.52381C225.581 4.20635 226.685 6.97823 226.836 10.8394C226.901 11.7023 226.912 12.7701 226.869 14.0427C226.847 15.2939 226.804 16.4911 226.739 17.6343H219.4C219.594 14.8085 219.616 12.0582 219.464 9.3834C219.291 7.35572 217.31 6.34188 213.521 6.34188C211.465 6.34188 209.982 6.60074 209.072 7.11844C208.163 7.63615 207.643 8.39113 207.513 9.3834C207.362 10.462 207.286 11.5513 207.286 12.6514C207.308 13.73 207.384 14.8085 207.513 15.8871C207.622 16.8362 207.968 17.6559 208.553 18.3462C209.137 19.0149 210.35 19.4679 212.19 19.7051L217.159 20.6435C219.8 21.118 221.824 21.8407 223.232 22.8114C224.639 23.7821 225.624 24.99 226.187 26.4353C226.772 27.859 227.107 29.5415 227.194 31.4829C227.259 32.3458 227.28 33.1763 227.259 33.9744C227.237 34.7725 227.194 35.5814 227.129 36.4011C226.956 40.3055 225.83 43.0989 223.751 44.7815C221.694 46.4424 218.306 47.2729 213.586 47.2729Z" fill="white"/>
<path d="M244.536 47.2729C239.643 47.2729 236.125 46.4424 233.981 44.7815C231.859 43.0989 230.777 40.3163 230.734 36.4335C230.474 24.4616 230.474 12.5004 230.734 0.550062H238.333C238.181 6.46052 238.106 12.6838 238.106 19.2198C238.106 25.7342 238.149 31.9575 238.235 37.8895C238.235 39.9172 240.336 40.931 244.536 40.931C248.628 40.931 250.674 39.9172 250.674 37.8895C250.782 31.9575 250.836 25.7342 250.836 19.2198C250.858 12.6838 250.804 6.46052 250.674 0.550062H258.273C258.533 12.5004 258.533 24.4616 258.273 36.4335C258.251 40.3163 257.169 43.0989 255.025 44.7815C252.882 46.4424 249.385 47.2729 244.536 47.2729Z" fill="white"/>
<path d="M283.929 46.7552H262.592V0.550062H270.192V39.8956H283.929V46.7552Z" fill="white"/>
<path d="M301.563 46.7552H293.964V7.40965H285.13V0.550062H310.364V7.40965H301.563V46.7552Z" fill="white"/>
<path d="M321.536 46.7552H313.936V0.550062H321.536V46.7552Z" fill="white"/>
<path d="M334.396 46.7552H327.024V0.550062H338.748L342.515 15.2723L347.062 39.8956H348.848L347.451 19.7375L346.899 0.550062H354.271V46.7552H342.06L338.066 31.3535L334.364 7.37729H332.512L333.779 29.0885L334.396 46.7552Z" fill="white"/>
<path d="M372.328 47.2729C367.565 47.2729 364.165 46.4424 362.13 44.7815C360.117 43.0989 359.045 40.3055 358.915 36.4011C358.807 34.0067 358.731 31.2996 358.688 28.2796C358.666 25.2597 358.666 22.2613 358.688 19.2845C358.731 16.2861 358.807 13.6221 358.915 11.2924C359.045 7.19394 360.128 4.29264 362.163 2.58853C364.22 0.862843 367.597 0 372.295 0C376.777 0 380.046 0.841273 382.103 2.52381C384.16 4.20635 385.296 6.97823 385.513 10.8394C385.621 11.8317 385.664 12.9642 385.643 14.2369C385.643 15.488 385.599 16.6205 385.513 17.6343H377.914C378 16.4695 378.043 15.0997 378.043 13.525C378.065 11.9288 378.022 10.5482 377.914 9.3834C377.74 7.35572 375.868 6.34188 372.295 6.34188C368.55 6.34188 366.623 7.35572 366.515 9.3834C366.363 12.2739 366.266 15.3694 366.222 18.6697C366.179 21.9701 366.179 25.2705 366.222 28.5708C366.287 31.8712 366.385 34.9666 366.515 37.8572C366.558 38.8494 367.045 39.6152 367.976 40.1545C368.907 40.6722 370.358 40.931 372.328 40.931C376.16 40.931 378.195 39.9064 378.433 37.8572C378.476 37.0159 378.498 35.9589 378.498 34.6862C378.498 33.392 378.476 32.335 378.433 31.5153H372.62V24.7528H385.87C385.957 26.4569 386 28.3443 386 30.4152C386 32.486 385.935 34.4813 385.805 36.4011C385.654 40.3055 384.528 43.0989 382.428 44.7815C380.328 46.4424 376.961 47.2729 372.328 47.2729Z" fill="white"/>
</svg>
